<svg id="Layer_1" data-name="Layer 1" xmlns="http://www.w3.org/2000/svg" viewBox="0 0 1348.42 275.61"><defs><style>.cls-1{fill:#fff;stroke:#000;stroke-miterlimit:10;stroke-width:2px;}</style></defs><title>ATL_Logotype_Sans</title><rect class="cls-1" x="1125.21" y="4.16" width="43" height="269"/><path class="cls-1" d="M1242.92,348h-41.15s-0.07,182-.07,182l-58.52-182H1092V617h41V428.63L1194.53,617H1243s0-267.72-.06-269v0Z" transform="translate(-353.79 -343.84)"/><polygon class="cls-1" points="939.4 4.16 926.92 50.04 986.21 49.04 986.21 273.16 1027.21 273.16 1027.21 48.73 1087.73 48.84 1077.77 4.16 939.4 4.16"/><path class="cls-1" d="M769.43,348H726V615.89l27.87,0.52c0.37,0,1.32.59,1.69,0.59h13.05a1,1,0,0,0,.67-0.59,1,1,0,0,1,.67-0.31l67.68-.36,11.83-43.62-80,1.29Z" transform="translate(-353.79 -343.84)"/><path class="cls-1" d="M1041.42,576.19l-0.16-.65-9.77-39.19-0.16-.65s-0.07.27-.16-0.09L984.12,348H938.38l-57,227.45c-0.09.36-.24,0.67-0.33,1l-0.14.42c-0.09.36-.16,0.58-0.16,0.58a10.22,10.22,0,0,1-.16,1.14L871.18,617h44l9.46-39.42,72.41-.8a1.4,1.4,0,0,1,.83,1l9.67,39.18H1051l-9.47-39.64A11.24,11.24,0,0,1,1041.42,576.19ZM934.81,536.42l26.53-128.65L987.81,536Z" transform="translate(-353.79 -343.84)"/><path class="cls-1" d="M525.3,576.19l-0.16-.65-9.77-39.19-0.16-.65s-0.07.27-.16-0.09L468,348H422.26l-57,227.45c-0.09.36-.24,0.67-0.33,1l-0.14.42c-0.09.36-.16,0.58-0.16,0.58a10.22,10.22,0,0,1-.16,1.14L355.06,617h44l9.46-39.42,72.41-.8a1.4,1.4,0,0,1,.83,1L491.45,617h43.48l-9.47-39.64A11.22,11.22,0,0,1,525.3,576.19ZM418.69,536.42l26.53-128.65L471.69,536Z" transform="translate(-353.79 -343.84)"/><path class="cls-1" d="M1657,573.63c-39.47,0-41.41-41-41.41-92s0-92.36,41.41-92.36c22.22,0,33.33,7.66,33.33,7.66L1701,351.74c-11.11-4.6-28.74-6.9-45.21-6.9-83.53,0-83.53,60.93-83.53,136.81,0,75.48,4.21,136.8,83.53,136.8,17.26,0,34.11-2.29,45.21-6.9l-9.58-45.6C1688,568.26,1674.23,573.63,1657,573.63Z" transform="translate(-353.79 -343.84)"/><polygon class="cls-1" points="188.12 4.16 175.77 50.03 235.21 49.03 235.21 273.16 276.21 273.16 276.21 48.72 336.58 48.84 326.48 4.16 188.12 4.16"/></svg>