<svg id="Layer_1" data-name="Layer 1" xmlns="http://www.w3.org/2000/svg" viewBox="0 0 2053 964"><defs><style>.cls-1{fill:#30334a;}.cls-2{fill:#fff;}</style></defs><title>AtlanticLogo</title><rect class="cls-1" width="2053" height="964"/><path class="cls-2" d="M1015.35,252.25C981.48,327,951,400.14,926.64,461.15,922.51,467,828.65,600.4,809,600.83s19.91-88.16,51.47-153c22.4-.24,43.16-0.42,53.22-0.36l4.47-27c-10.4,0-26.09-.57-43.5-1.35C886,396.47,894.13,381,894.13,381a118.85,118.85,0,0,1-37.28-14s-11.28,20.74-25.62,50c-21.55-1.05-41.45-2-53.46-2.14l-1.54,34s17.41-.26,40.11-0.55c-4.57,9.93-9.18,20.26-13.6,30.67-32.48,46.24-90.41,124.55-110.29,124.69-33,.23,144.94-321.33,144.94-321.33-24.76-5.43-36-16.37-36-16.37s-6.44,11.68-16.61,30.74c-7.45-36.65-45.81-58.7-80.39-60.15-133.78-5.64-283.14,194-283.14,343.57,0,48.86,23.77,90.18,79.57,90.18,53.74,0,121.34-78.63,174.65-146.12-12.12,31.08-19.95,57.13-19.71,72.19,0.22,14.16,5.58,35.83,33.15,35.4,26.56-.41,73.68-65.62,90.91-90.82-5,16.88-8,31.92-7.73,43.3,0.34,15.56-1,43.88,29.31,43.21,24.81-.54,69-55.55,96.8-93.87-20.09,52.27-31.78,85-31.78,85a115.23,115.23,0,0,1,25,24.09l160.43-374.11A171.78,171.78,0,0,1,1015.35,252.25ZM513.85,636.5c-37.88,0-44-23.86-44-53.19,0-91.1,109.37-333,248.94-327.14,22.06,0.93,44,19.86,43.78,46.43-0.34,34.92-35.79,73.33-35.79,73.33a67.72,67.72,0,0,1,9.68,14.31c-6.69,13.44-13.47,27.3-20.12,41.23C685.32,476.94,558.13,636.5,513.85,636.5Z"/><path class="cls-2" d="M1654.92,442.69l7-18.39s-126.67-1.25-270.55-2.35c13-26.11,22.7-44.48,22.7-44.48-19.66-6.26-31.33-14-31.33-14s-14.36,24.68-31.65,58.19c-125.78-.91-256.82-1.61-323.31-1.2l7.84,31.5,302.5-4.52c-4.87,10-9.76,20.28-14.43,30.65-10.3,17.72-68.37,116.5-83.11,116.9-11.2.31,28-108.14,28-108.14l-31.36-13.66-86.48,106.33,46.92-106.35c-21.69.42-33.16-6.28-33.16-6.28s-8.81,16.89-19,40.71c-16.94,23.33-82.22,111.44-80.83,81.45,0.81-17.56,48.64-110.08,48.64-110.08-16.77-1.34-31-10.27-31-10.27s-4.2,8.37-10.11,20.79c-4.43-8.93-13.3-15.84-30.31-16.79-34.95-1.94-86.48,42.62-89.92,104.78-1.79,32.31,14.89,46.36,33.63,47.73,16.67,1.22,32.92-13.36,48.87-33.41,0.16,15.62,6,30.58,29.8,31.69,14.63,0.68,42.21-33.92,60.07-58.75-4.52,15.15-8,30.28-9.3,43.91-0.18,1.92,19.61,25.37,28.51,15.66,4.49-4.91,84.74-116.84,84.74-116.84s-22.58,59.69-21.69,91.91c0.07,2.72,13.95,24.29,24.94,24,14.78-.41,37.14-20.76,61.13-53.56a75.69,75.69,0,0,0-.64,10.92c0.34,15.56-1,43.88,29.31,43.21,20-.44,50-35.46,73.92-68.56-2.85,11.64-4.5,23-4.14,33.05,0.55,15.55,6,36.36,36.27,34.75,16.08-.86,38.08-29.59,51.24-49.13,0,1.18,0,2.36,0,3.54,0.73,32.35,29.32,49.45,48,47.81s46.35-13.92,68.74-57.9l-15-7s-21.49,41.63-47.91,44c-18.12,1.6-21.78-17.79-22.13-24.79-1.49-29.67,25.66-94.92,49.22-97,6.4-.56,8.92,6,8.77,14.76-0.23,13.37-6.46,24.07-9.68,29.53,0,0,16.67,4.91,26.39,14.44,0,0,12.29-20.27,10.74-37.89s-8-37.51-39.86-36.8c-27.33.62-55.35,25.44-68.92,61.43-12.71,20.9-45.54,73.14-56.18,73.51-31,1.1,40.19-133,40.19-133-24.23-4.06-33.14-12.26-33.14-12.26s-2.74,4.59-6.88,12.25c-16,24.57-84.37,128.25-102.12,128.64-19.42.43,18.89-85.88,50.24-150.45ZM996.87,597.39c-11.8-.55-10.82-13.55-10.43-20.55,1.2-21.7,33.12-90,56.74-88.7,6.41,0.36,9.64,6.92,9.64,17.23,0,13.51-7.51,24.31-10.68,29l7.07,6.49c-1.66,4-3.25,8-4.73,11.91C1031.12,573.13,1011.65,598.08,996.87,597.39Z"/><path class="cls-2" d="M1475.68,411.93c12.79,0.06,31.71-18.58,31.82-42.63,0.07-16.27-15-17.69-15-17.69-22.35-.11-33,24.52-33.13,40.46C1459.28,405.42,1468.15,411.9,1475.68,411.93Z"/></svg>